<svg xmlns="http://www.w3.org/2000/svg" viewBox="0 0 64 64" role="img" aria-label="Santree Go favicon">
  <defs>
    <linearGradient id="bg" x1="0" y1="0" x2="1" y2="1">
      <stop offset="0%" stop-color="#0B6B1D"/>
      <stop offset="100%" stop-color="#2E8534"/>
    </linearGradient>
    <linearGradient id="gold" x1="0" y1="0" x2="1" y2="1">
      <stop offset="0%" stop-color="#FFF3B0"/>
      <stop offset="100%" stop-color="#F6B10A"/>
    </linearGradient>
  </defs>
  <rect x="2" y="2" width="60" height="60" rx="14" fill="url(#bg)"/>
  <g fill="none" stroke="url(#gold)" stroke-width="3" stroke-linecap="round" stroke-linejoin="round">
    <path d="M14 42c6-4 12-4 18 0V22c-6-4-12-4-18 0z"/>
    <path d="M50 42c-6-4-12-4-18 0V22c6-4 12-4 18 0z"/>
    <path d="M32 22v20"/>
  </g>
  <g transform="translate(42 18)">
    <circle cx="0" cy="0" r="9" fill="#102614" stroke="#D4FF00" stroke-width="2"/>
    <path d="M0-6l2.2 5.3L0 6l-2.2-6.7z" fill="#D4FF00"/>
    <circle cx="0" cy="0" r="1.3" fill="#FFFDEB"/>
  </g>
</svg>
